<svg width="302" height="34" viewBox="0 0 302 34" version="1.1" xmlns="http://www.w3.org/2000/svg" xmlns:xlink="http://www.w3.org/1999/xlink"><title>Group 6</title><defs><path d="M20.052 4.25c0 2.022 1.614 3.533 3.768 3.533 2.1 0 3.759-1.53 3.759-3.493 0-1.949-1.647-3.48-3.76-3.48-2.08 0-3.767 1.54-3.767 3.44z" id="path-1"/><filter x="-19.9%" y="-21.5%" width="139.9%" height="143%" filterUnits="objectBoundingBox" id="filter-2"><feGaussianBlur stdDeviation="1" in="SourceAlpha" result="shadowBlurInner1"/><feOffset dx="1" dy="1" in="shadowBlurInner1" result="shadowOffsetInner1"/><feComposite in="shadowOffsetInner1" in2="SourceAlpha" operator="arithmetic" k2="-1" k3="1" result="shadowInnerInner1"/><feColorMatrix values="0 0 0 0 0 0 0 0 0 0 0 0 0 0 0 0 0 0 0.5 0" type="matrix" in="shadowInnerInner1"/></filter></defs><g id="Page-1" stroke="none" stroke-width="1" fill="none" fill-rule="evenodd"><g id="Tap_Payment-Method-(PP)" transform="translate(-844 -388)"><g id="Group" transform="translate(294 194)"><g id="Group-6" transform="translate(550 194)"><g id="Group-8" transform="translate(0 1)"><rect x=".02" y=".156" width="51.703" height="32.697" rx="5" id="card" fill="#F9F9F9"/><g id="Group-5" transform="translate(5 10)"><path d="M40.353 3.072l-.972 6.362a.201.201 0 0 0 .194.235h.978c.162 0 .3-.122.325-.286l.959-6.248a.201.201 0 0 0-.195-.234h-1.094a.199.199 0 0 0-.195.171" id="l" fill="#2890C3"/><path d="M37.398 7.427c-.103.635-.586 1.062-1.204 1.062-.309 0-.557-.104-.716-.3-.158-.195-.217-.473-.167-.782.096-.63.588-1.07 1.195-1.07.303 0 .55.105.711.303.164.2.228.479.181.787m1.487-2.166h-1.067c-.091 0-.17.07-.183.164l-.047.31-.075-.112c-.23-.35-.746-.466-1.26-.466-1.178 0-2.185.931-2.38 2.237-.102.652.042 1.275.397 1.71.325.399.79.565 1.343.565.95 0 1.477-.636 1.477-.636l-.048.309a.191.191 0 0 0 .183.223h.96a.314.314 0 0 0 .307-.272l.576-3.808a.191.191 0 0 0-.183-.224" id="a" fill="#2890C3"/><path d="M32.41 5.183c-.125.874-.753.874-1.36.874h-.346l.242-1.633a.195.195 0 0 1 .189-.171h.158c.414 0 .805 0 1.006.25.12.15.157.373.112.68M32.146 2.9h-2.292a.325.325 0 0 0-.314.285l-.927 6.248c-.018.123.072.235.189.235h1.176c.11 0 .203-.085.22-.2l.263-1.771a.325.325 0 0 1 .314-.286h.725c1.51 0 2.381-.777 2.609-2.316.102-.673.004-1.202-.292-1.573-.326-.407-.904-.622-1.67-.622" id="P" fill="#2890C3"/><path d="M28.422 5.157h-1.087a.307.307 0 0 0-.26.149l-1.5 2.394-.636-2.3a.319.319 0 0 0-.3-.243h-1.07c-.129 0-.22.137-.178.27l1.197 3.809-1.126 1.722c-.088.135 0 .322.154.322h1.086c.103 0 .2-.054.258-.146l3.617-5.657c.086-.135-.003-.32-.155-.32" id="y" fill="#28346A"/><path d="M21.093 7.427c-.103.635-.586 1.062-1.204 1.062-.309 0-.557-.104-.716-.3-.158-.195-.217-.473-.167-.782.096-.63.588-1.07 1.195-1.07.303 0 .549.105.711.303.164.2.228.479.181.787M22.58 5.26h-1.067c-.091 0-.17.07-.183.164l-.047.31-.075-.112c-.23-.35-.746-.466-1.26-.466-1.178 0-2.185.931-2.38 2.237-.102.652.042 1.275.397 1.71.325.399.79.565 1.343.565.95 0 1.477-.636 1.477-.636l-.048.309a.191.191 0 0 0 .183.223h.96a.314.314 0 0 0 .307-.272l.576-3.808a.191.191 0 0 0-.183-.224" id="a" fill="#28346A"/><path d="M16.413 5.183c-.125.874-.753.874-1.361.874h-.346l.243-1.633a.195.195 0 0 1 .188-.171h.16c.413 0 .803 0 1.005.25.12.15.157.373.111.68M16.15 2.9h-2.292a.325.325 0 0 0-.315.285l-.926 6.248c-.019.123.07.235.188.235H13.9c.156 0 .29-.122.314-.286l.25-1.685a.325.325 0 0 1 .315-.286h.725c1.51 0 2.381-.777 2.609-2.316.102-.673.004-1.202-.293-1.573-.326-.407-.903-.622-1.67-.622M7.513.847C7.031.254 6.16 0 5.044 0H1.81a.476.476 0 0 0-.458.422L.003 9.644c-.026.182.104.347.275.347h1.998l.501-3.435-.015.108c.036-.243.228-.422.456-.422h.95c1.864 0 3.324-.817 3.75-3.182a3.24 3.24 0 0 0 .034-.205c-.054-.03-.054-.03 0 0 .127-.874 0-1.469-.439-2.008" id="P" fill="#28346A"/><path d="M8.04 2.9a6.03 6.03 0 0 1-.034.205C7.574 5.47 6.096 6.286 4.21 6.286h-.96a.477.477 0 0 0-.462.422l-.631 4.269c-.024.159.091.303.242.303h1.704a.419.419 0 0 0 .405-.369l.017-.092.32-2.17.021-.12a.419.419 0 0 1 .405-.37h.255c1.65 0 2.943-.714 3.32-2.782.158-.864.077-1.586-.34-2.093a1.645 1.645 0 0 0-.467-.383" id="shadow" fill="#2890C3"/><path d="M7.549 2.745a2.954 2.954 0 0 0-.419-.1 4.934 4.934 0 0 0-.843-.067H3.73a.38.38 0 0 0-.176.043.437.437 0 0 0-.227.329l-.544 3.71-.015.108a.477.477 0 0 1 .459-.424h.957c1.879 0 3.35-.822 3.78-3.2.013-.07.024-.139.034-.206a2.234 2.234 0 0 0-.45-.193" id="fill" fill="#1F274F"/></g></g><g id="Group-4" transform="translate(248)"><path d="M0 4.999A4.998 4.998 0 0 1 5.008 0h43.984A4.999 4.999 0 0 1 54 4.999V29a4.998 4.998 0 0 1-5.008 5H5.008A4.999 4.999 0 0 1 0 29.001V5z" id="card" fill="#0066B2"/><g id="logo" transform="translate(4 9)" fill="#FFF"><g id="express" transform="translate(9.736 8.756)"><path d="M28.657 2.413c.235.24.36.541.36 1.053 0 1.069-.678 1.568-1.894 1.568h-2.35V3.97h2.34c.23 0 .391-.03.493-.124a.437.437 0 0 0 .143-.324.424.424 0 0 0-.147-.328c-.093-.076-.22-.11-.43-.11-1.128-.039-2.54.034-2.54-1.539 0-.72.46-1.48 1.724-1.48h2.418v1.058h-2.213c-.22 0-.362.008-.483.09-.132.08-.181.2-.181.358a.38.38 0 0 0 .264.37c.127.043.264.056.47.056l.649.017c.654.016 1.104.128 1.377.4zm4.563 0c.236.24.362.541.362 1.053 0 1.069-.679 1.568-1.895 1.568h-2.35V3.97h2.34c.229 0 .391-.03.493-.124a.437.437 0 0 0 .142-.324.424.424 0 0 0-.147-.328c-.092-.076-.22-.11-.43-.11-1.127-.039-2.54.034-2.54-1.539 0-.72.46-1.48 1.724-1.48h2.419v1.058h-2.213c-.22 0-.362.008-.483.09-.132.08-.181.2-.181.358a.38.38 0 0 0 .264.37c.127.043.263.056.469.056l.65.017c.654.016 1.103.128 1.377.4z" id="s"/><path id="Path-4" d="M20.025.064h4.026v1.028h-2.825v.904h2.756V3.01h-2.756v.988l2.825.005v1.031h-4.026z"/><path d="M18.501 2.725c.269.097.488.272.59.417.171.242.196.469.2.907v.985h-1.21v-.622c0-.299.029-.741-.195-.972-.176-.179-.445-.221-.885-.221h-1.29v1.815H14.5V.064h2.785c.61 0 1.055.027 1.451.235.38.226.62.537.62 1.103 0 .794-.537 1.198-.855 1.323zm-.728-.619a.533.533 0 0 0 .25-.477c0-.212-.094-.367-.25-.447-.146-.085-.361-.09-.576-.09h-1.485V2.21h1.465c.235 0 .434-.009.596-.103z" id="r"/><path d="M13.933 1.702c0 1.38-1.046 1.665-2.1 1.665h-1.505v1.667H7.983L6.498 3.39 4.954 5.034H.176V.064h4.852l1.484 1.63L8.046.063h3.855c.957 0 2.032.261 2.032 1.638zm-2.046.656c.463 0 .751-.226.751-.656 0-.435-.302-.61-.737-.61h-1.573v1.266h1.559zm-2.76 2.224V.598l-1.852 1.96 1.851 2.024zm-4.783-.584L5.722 2.54l-1.32-1.448H1.378v.904h2.648V3.01H1.378v.988h2.966z" id="exp"/></g><g id="american" transform="translate(0 .076)"><path d="M40.113 5.165h-1.71l-2.286-3.729v3.73h-2.456l-.47-1.109h-2.506l-.455 1.108h-1.412c-.586 0-1.328-.127-1.748-.55-.424-.42-.645-.992-.645-1.896 0-.737.132-1.41.65-1.943.39-.396 1-.58 1.832-.58h1.168v1.066h-1.143c-.44 0-.69.064-.929.294-.205.21-.346.605-.346 1.125 0 .533.107.917.331 1.167.186.197.523.256.84.256h.543l1.7-3.907h1.807l2.042 4.7v-4.7h1.837l2.12 3.46V.198h1.236v4.968zm-7.375-2.143l-.825-1.981-.822 1.98h1.647z" id="can"/><path id="i" d="M24.603.197h1.231v4.968h-1.23z"/><path d="M23.904 1.535c0 .792-.537 1.202-.85 1.324.264.1.49.274.597.419.17.247.2.468.2.911v.976h-1.218l-.004-.626c0-.3.029-.729-.19-.968-.177-.175-.445-.213-.88-.213h-1.294v1.807h-1.207V.197h2.775c.616 0 1.07.016 1.46.238.382.222.61.546.61 1.1zm-1.578.698c.157-.08.249-.255.249-.473 0-.212-.097-.366-.253-.439-.143-.08-.362-.09-.572-.09h-1.486v1.104h1.466c.235 0 .43-.003.596-.102z" id="r"/><path id="e" d="M18.222 5.165h-4.03V.197h4.03v1.035H15.4v.895h2.756v1.019H15.4v.992h2.823z"/><path d="M13.294 5.165h-1.237l-.004-3.89-1.75 3.89H9.245L7.491 1.271v3.894H5.038l-.464-1.108H2.063l-.469 1.108H.284L2.444.197h1.792L6.288 4.9V.197h1.969l1.578 3.37 1.45-3.37h2.009v4.968zM4.138 3.022L3.313 1.04l-.821 1.98h1.646z" id="am"/></g></g></g><g id="Group-13" transform="translate(124)"><path d="M.226 5.003a4.995 4.995 0 0 1 5-5.003h45.115c2.761 0 5 2.243 5 5.003v23.774a4.995 4.995 0 0 1-5 5.003H5.227c-2.762 0-5-2.243-5-5.003V5.003z" id="card" fill="#14457C"/><g id="Group-7" transform="translate(8.227 6.223)"><path d="M22.122 10.926c0 5.971-4.806 10.811-10.735 10.811-5.93 0-10.737-4.84-10.737-10.81C.65 4.954 5.457.114 11.387.114c5.929 0 10.735 4.84 10.735 10.811" id="Fill-2" fill="#D82332"/><path d="M25.906.115c-2.774 0-5.302 1.06-7.208 2.798-.387.355-.75.737-1.083 1.145h2.169c.296.363.57.745.818 1.145h-3.806c-.227.367-.435.75-.618 1.145h5.043c.172.37.324.752.455 1.145h-5.953c-.124.373-.228.754-.312 1.144h6.576a10.975 10.975 0 0 1-.311 5.724h-5.953c.13.392.282.774.454 1.145h5.044c-.184.395-.39.777-.62 1.145h-3.805c.249.399.522.781.82 1.144h2.167c-.333.408-.695.79-1.084 1.145a10.655 10.655 0 0 0 7.207 2.797c5.93 0 10.736-4.84 10.736-10.81 0-5.971-4.806-10.812-10.736-10.812" id="Fill-3" fill="#F1AB3E"/><path d="M35.092 16.894a.38.38 0 0 1 .382-.377.38.38 0 0 1 .382.377.38.38 0 0 1-.382.378.38.38 0 0 1-.382-.378zm.382.287a.29.29 0 0 0 .29-.287.288.288 0 0 0-.29-.287c-.16 0-.29.128-.29.287 0 .159.13.287.29.287zm-.051-.121h-.079v-.331h.142c.03 0 .06 0 .086.016a.1.1 0 0 1 .043.083.09.09 0 0 1-.059.086l.062.146h-.087l-.051-.131h-.057v.13zm0-.188h.043c.016 0 .033 0 .048-.007a.045.045 0 0 0 .02-.038.043.043 0 0 0-.02-.034c-.014-.008-.035-.006-.05-.006h-.041v.085z" id="registered" fill="#F1AB3E"/><path d="M35.092 13.477a.38.38 0 0 1 .382-.377.38.38 0 0 1 .382.377.38.38 0 0 1-.382.378.38.38 0 0 1-.382-.378zm.382.287a.29.29 0 0 0 .291-.287.29.29 0 0 0-.29-.287.29.29 0 0 0-.291.287c0 .159.13.287.29.287zm-.051-.122h-.079v-.33h.142c.03 0 .06 0 .086.016.028.018.043.05.043.083a.09.09 0 0 1-.058.086l.062.145h-.087l-.052-.13h-.057v.13zm0-.187h.043c.016 0 .034.001.048-.007a.046.046 0 0 0 .02-.038.045.045 0 0 0-.02-.034c-.013-.008-.035-.006-.05-.006h-.041v.085z" id="registered" fill="#FFFFFE"/><path d="M33.994 8.487l-.259 1.584c-.318-.422-.66-.728-1.112-.728-.589 0-1.124.449-1.474 1.11a9.526 9.526 0 0 1-.993-.275v.004c.038-.37.055-.594.051-.671h-1.07c-.146 1.38-.406 2.778-.608 4.16l-.054.3h1.167c.157-1.03.277-1.885.366-2.563.399-.363.598-.678 1-.658a3.85 3.85 0 0 0-.282 1.447c0 1.115.56 1.85 1.407 1.85.428 0 .755-.148 1.075-.492l-.055.415h1.103l.888-5.483h-1.15zm-1.458 4.453c-.396 0-.597-.296-.597-.879 0-.877.375-1.498.904-1.498.4 0 .618.307.618.873 0 .885-.382 1.504-.925 1.504z" id="Fill-12" fill="#0C2D5A"/><path d="M27.294 12.085a1.912 1.912 0 0 0-.26-.019c-.66 0-.995.228-.995.679 0 .277.163.455.418.455.474 0 .817-.455.837-1.115zm.848 1.986h-.966l.022-.462c-.294.365-.687.54-1.221.54-.632 0-1.065-.498-1.065-1.219 0-1.086.753-1.719 2.046-1.719.133 0 .302.012.475.035a1.11 1.11 0 0 0 .046-.29c0-.295-.203-.405-.748-.405a3.851 3.851 0 0 0-1.233.2l.161-1.003c.581-.171.964-.236 1.395-.236 1 0 1.531.453 1.53 1.308.002.229-.035.512-.094.883-.101.646-.318 2.032-.348 2.368z" id="a" fill="#0C2D5A"/><path d="M24.22 9.674c.323 0 .625.085 1.04.296l.192-1.19c-.172-.068-.773-.464-1.282-.464-.78 0-1.44.39-1.903 1.033-.676-.226-.955.23-1.296.684l-.302.072c.023-.15.043-.299.037-.449h-1.071c-.146 1.38-.405 2.779-.608 4.16l-.053.3h1.166c.195-1.274.3-2.089.366-2.641l.439-.245c.066-.246.27-.329.683-.319-.054.29-.083.597-.083.914 0 1.46.782 2.368 2.037 2.368.323 0 .6-.043 1.03-.16l.204-1.25c-.386.19-.702.28-.99.28-.677 0-1.087-.503-1.087-1.335 0-1.208.61-2.054 1.48-2.054" id="Fill-11" fill="#0C2D5A"/><path d="M18.573 13.968c-.398.123-.783.18-1.189.18-1.297 0-1.973-.683-1.973-1.989 0-1.525.86-2.647 2.027-2.647.956 0 1.566.628 1.566 1.615 0 .326-.043.645-.143 1.096h-2.307c-.078.647.333.917 1.007.917a2.73 2.73 0 0 0 1.205-.281l-.193 1.11zm-.651-2.644c.006-.094.123-.796-.54-.796-.368 0-.632.283-.74.796h1.28z" id="e" fill="#0C2D5A"/><path d="M14.964 14.066a2.645 2.645 0 0 1-.837.145c-.596 0-.921-.345-.921-.98-.008-.197.086-.715.16-1.188.067-.417.505-3.044.505-3.044h1.159l-.136.675h.595l-.158 1.072h-.597c-.135.849-.327 1.904-.329 2.044 0 .231.122.33.4.33a.93.93 0 0 0 .314-.041l-.155.987" id="t" fill="#0C2D5A"/><path d="M10.423 11.021c0 .565.272.953.888 1.246.471.223.544.29.544.492 0 .278-.208.404-.669.404-.348 0-.671-.055-1.044-.176l-.16 1.03c.264.058.5.11 1.212.132 1.23 0 1.799-.472 1.799-1.49 0-.614-.238-.973-.822-1.243-.489-.227-.545-.277-.545-.485 0-.241.194-.365.57-.365.229 0 .542.025.838.067L13.2 9.6a7.88 7.88 0 0 0-1.026-.087c-1.304 0-1.755.686-1.751 1.51" id="s" fill="#0C2D5A"/><path d="M8.97 12.085a1.925 1.925 0 0 0-.26-.019c-.66 0-.995.228-.995.679 0 .277.163.455.418.455.475 0 .817-.455.837-1.115zm.848 1.986h-.966l.023-.462c-.295.365-.688.54-1.222.54-.632 0-1.065-.498-1.065-1.219 0-1.086.753-1.719 2.046-1.719.133 0 .302.012.476.035.036-.148.045-.21.045-.29 0-.295-.203-.405-.747-.405a3.847 3.847 0 0 0-1.234.2l.161-1.003c.581-.171.964-.236 1.395-.236 1.001 0 1.531.453 1.53 1.308.002.229-.035.512-.094.883-.101.646-.318 2.032-.348 2.368z" id="a" fill="#0C2D5A"/><path id="m" fill="#0C2D5A" d="M6.002 14.14H4.837l.668-4.214-1.491 4.215h-.795l-.098-4.19-.701 4.19H1.329l.91-5.483h1.677l.047 3.394 1.13-3.394h1.81l-.9 5.483"/><path d="M34.72 13.8h-1.103l.055-.416c-.32.344-.648.493-1.075.493-.847 0-1.407-.735-1.407-1.851 0-1.483.869-2.734 1.896-2.734.453 0 .795.186 1.114.609l.258-1.585h1.15l-.888 5.483zM33 12.768c.543 0 .925-.62.925-1.503 0-.567-.217-.874-.618-.874-.529 0-.904.621-.904 1.498 0 .584.201.879.597.879z" id="d-2" fill="#FFFFFE"/><path d="M29.476 9.218c-.146 1.38-.405 2.778-.608 4.16l-.053.3h1.165c.417-2.728.518-3.26 1.172-3.193.104-.559.298-1.047.442-1.294-.488-.102-.76.175-1.118.703.029-.228.08-.45.07-.676h-1.07" id="r-2" fill="#FFFFFE"/><path d="M27.633 11.743a1.912 1.912 0 0 0-.26-.018c-.66 0-.994.228-.994.678 0 .277.163.455.417.455.475 0 .817-.455.837-1.115zm.848 1.986h-.965l.022-.461c-.295.364-.688.539-1.222.539-.632 0-1.064-.497-1.064-1.219 0-1.086.752-1.718 2.046-1.718.132 0 .3.012.474.034a1.11 1.11 0 0 0 .046-.29c0-.295-.203-.405-.747-.405a3.851 3.851 0 0 0-1.234.2l.162-1.003c.58-.171.963-.236 1.394-.236 1.001 0 1.532.453 1.53 1.308.003.23-.035.513-.094.884-.1.645-.318 2.03-.348 2.367z" id="a-2" fill="#FFFFFE"/><path d="M25.765 8.43l-.191 1.19c-.417-.21-.718-.296-1.042-.296-.87 0-1.48.847-1.48 2.055 0 .832.41 1.335 1.088 1.335.287 0 .604-.09.99-.281l-.205 1.25c-.43.117-.707.16-1.03.16-1.255 0-2.037-.909-2.037-2.368 0-1.96 1.08-3.33 2.625-3.33.51 0 1.11.217 1.282.285" id="c-2" fill="#FFFFFE"/><path d="M19.975 9.218c-.147 1.38-.406 2.778-.609 4.16l-.053.3h1.166c.418-2.728.518-3.26 1.171-3.193.105-.559.299-1.047.443-1.294-.488-.102-.76.175-1.117.703.028-.228.08-.45.07-.676h-1.071" id="r-3" fill="#FFFFFE"/><path d="M18.912 13.626a3.912 3.912 0 0 1-1.189.18c-1.297 0-1.973-.683-1.973-1.989 0-1.524.86-2.647 2.027-2.647.956 0 1.566.629 1.566 1.615 0 .327-.042.646-.142 1.096h-2.308c-.078.647.333.917 1.007.917a2.73 2.73 0 0 0 1.205-.281l-.193 1.11zm-.65-2.644c.005-.093.122-.796-.54-.796-.369 0-.633.284-.74.796h1.28z" id="e-2" fill="#FFFFFE"/><path d="M15.304 13.724a2.645 2.645 0 0 1-.838.145c-.595 0-.92-.345-.92-.98-.009-.197.085-.714.16-1.188.066-.417.505-3.043.505-3.043h1.158l-.135.674h.594l-.158 1.072h-.597c-.134.849-.326 1.905-.329 2.045 0 .23.123.33.4.33a.93.93 0 0 0 .314-.042l-.154.987" id="t-2" fill="#FFFFFE"/><path d="M10.762 10.68c0 .564.272.953.888 1.245.472.224.545.29.545.493 0 .277-.208.403-.67.403-.347 0-.67-.054-1.044-.176l-.16 1.03c.265.058.501.111 1.213.132 1.23 0 1.798-.471 1.798-1.49 0-.614-.238-.973-.822-1.243-.488-.226-.545-.277-.545-.485 0-.241.194-.365.57-.365.23 0 .542.026.838.068l.166-1.035a7.88 7.88 0 0 0-1.026-.087c-1.304 0-1.755.686-1.75 1.51" id="s-2" fill="#FFFFFE"/><path d="M9.31 11.743a1.925 1.925 0 0 0-.26-.018c-.661 0-.995.228-.995.678 0 .277.163.455.417.455.475 0 .818-.455.838-1.115zm.847 1.986h-.965l.022-.461c-.295.364-.688.539-1.222.539-.631 0-1.064-.497-1.064-1.219 0-1.086.753-1.718 2.046-1.718.132 0 .301.012.475.034.036-.147.045-.21.045-.29 0-.295-.203-.405-.747-.405a3.847 3.847 0 0 0-1.234.2l.162-1.003c.58-.171.964-.236 1.395-.236 1 0 1.53.453 1.53 1.308.002.23-.036.513-.094.884-.102.645-.319 2.03-.349 2.367z" id="a-3" fill="#FFFFFE"/><path id="m-2" fill="#FFFFFE" d="M6.342 13.8H5.176l.668-4.216-1.49 4.215h-.795L3.46 9.61l-.702 4.19h-1.09l.911-5.483h1.676l.047 3.394 1.131-3.394h1.81L6.342 13.8"/></g></g><g id="Group-9" transform="translate(184)"><path d="M.675 5.003a4.995 4.995 0 0 1 5-5.003H50.79c2.762 0 5 2.243 5 5.003v23.774a4.995 4.995 0 0 1-5 5.003H5.675c-2.761 0-5-2.243-5-5.003V5.003z" id="card" fill="#F9F9F9"/><path d="M55.79 24.002v4.885a4.886 4.886 0 0 1-4.89 4.893H28.231c11.717-2.338 20.18-5.527 27.557-9.778z" id="shape" fill="#F58220"/><g id="Group-2" transform="translate(5.12 12.445)"><path d="M45.328 1.519c0-.172-.132-.267-.376-.267h-.32v.867h.235v-.337l.28.337h.296l-.334-.358c.141-.033.22-.122.22-.242zm-.416.117h-.045v-.223h.048c.116 0 .176.036.176.11 0 .075-.063.113-.18.113z" id="r" fill="#231F20"/><path d="M44.861 1.03a.527.527 0 0 0-.542.516c0 .286.242.516.542.516a.528.528 0 0 0 .537-.516.529.529 0 0 0-.537-.515zm0 .939a.427.427 0 0 1-.436-.421c0-.237.194-.424.436-.424.235 0 .428.19.428.424a.426.426 0 0 1-.428.42z" id="Fill-12" fill="#231F20"/><path d="M44.094 2.912c0-1.256-.91-1.977-2.5-1.977h-2.047v6.697h1.38V4.941h.18l1.906 2.691h1.696l-2.227-2.821c1.04-.201 1.612-.874 1.612-1.9zm-2.767 1.105h-.4V1.988h.423c.86 0 1.327.343 1.327.994 0 .673-.468 1.035-1.35 1.035z" id="r" fill="#231F20"/><path id="e" fill="#231F20" d="M34.727 7.632h3.91V6.498h-2.532V4.689h2.436V3.556h-2.436V2.069h2.532V.935h-3.91v6.697"/><path id="v" fill="#231F20" d="M30.698 5.434l-1.887-4.5h-1.505l3 6.87h.742l3.053-6.87h-1.494l-1.909 4.5"/><g id="Fill-1"><use fill="#F48027" fill-rule="evenodd" xlink:href="#path-1"/><use fill="#000" fill-opacity="1" filter="url(#filter-2)" xlink:href="#path-1"/></g><path d="M14.07 4.287c0 1.97 1.632 3.496 3.73 3.496.594 0 1.103-.11 1.729-.392V5.855c-.553.522-1.04.732-1.666.732-1.388 0-2.374-.954-2.374-2.31a2.285 2.285 0 0 1 2.311-2.3c.656 0 1.155.223 1.729.754V1.194c-.604-.29-1.104-.41-1.696-.41-2.09 0-3.764 1.557-3.764 3.503" id="c" fill="#231F20"/><path d="M11.601 3.503c-.828-.29-1.07-.481-1.07-.842 0-.421.432-.743 1.027-.743.413 0 .752.161 1.114.541l.72-.892a3.187 3.187 0 0 0-2.078-.744c-1.25 0-2.204.824-2.204 1.918 0 .925.445 1.396 1.738 1.838.54.18.816.3.954.382.275.171.414.411.414.692 0 .544-.457.944-1.072.944-.658 0-1.187-.31-1.505-.893l-.889.815c.635.883 1.398 1.275 2.448 1.275 1.43 0 2.437-.905 2.437-2.2 0-1.064-.465-1.547-2.034-2.09" id="s" fill="#231F20"/><path id="i" fill="#231F20" d="M6.852.935H8.23v6.697H6.852z"/><path d="M2.422.935H.397v6.697h2.016c1.069 0 1.842-.24 2.521-.772.804-.634 1.282-1.588 1.282-2.573C6.216 2.31 4.657.935 2.422.935zm1.612 5.03c-.436.372-.996.533-1.887.533h-.371V2.069h.37c.892 0 1.43.15 1.888.541.477.403.76 1.025.76 1.667 0 .644-.283 1.288-.76 1.688z" id="d" fill="#231F20"/></g></g><g id="Group-15" transform="translate(61)"><path d="M.5 4.999V29a4.496 4.496 0 0 0 4.502 4.5h44.996a4.502 4.502 0 0 0 4.502-4.499V5A4.496 4.496 0 0 0 49.998.5H5.002A4.502 4.502 0 0 0 .5 4.999z" id="card" stroke="#005186" fill="#FFF"/><g id="Group-14" transform="translate(2 2)"><g id="Group-3" transform="translate(7.027 8.842)" fill="#005186"><path id="Fill-4" d="M10.874 11.093L14.137.26h2.912l-3.264 10.832h-2.911"/><path d="M9.572.264l-2.62 4.592c-.667 1.202-1.057 1.81-1.244 2.57h-.04c.046-.964-.087-2.146-.1-2.815L5.28.264H.377l-.05.292c1.259 0 2.006.636 2.211 1.94l.956 8.597H6.51L12.61.264H9.57" id="Fill-5"/><path d="M32.218 11.093l-.08-1.611-3.636-.003-.744 1.614h-3.162L30.33.282h3.88l.972 10.81h-2.963zm-.334-6.39c-.032-.8-.06-1.886-.005-2.544h-.043c-.177.538-.939 2.152-1.273 2.947L29.479 7.48h2.553l-.148-2.776z" id="Fill-6"/><path d="M20.107 11.4c-2.056 0-3.42-.656-4.395-1.241L17.1 8.027c.874.492 1.56 1.06 3.14 1.06.508 0 .998-.133 1.276-.617.405-.705-.094-1.084-1.231-1.732l-.562-.368c-1.686-1.16-2.416-2.261-1.622-4.184C18.61.956 19.95.024 22.16.024c1.524 0 2.953.663 3.786 1.312l-1.594 1.882c-.813-.661-1.486-.996-2.258-.996-.614 0-1.081.239-1.242.56-.304.605.098 1.018.984 1.571l.668.428c2.048 1.3 2.535 2.663 2.022 3.936-.883 2.194-2.61 2.683-4.418 2.683" id="Fill-7"/><path d="M36.047 1.73h-.126V.955h.292c.185 0 .28.066.28.223 0 .14-.086.198-.2.21l.214.34h-.143l-.198-.33h-.119v.33zm.141-.44c.095 0 .178-.009.178-.12 0-.094-.09-.105-.167-.105h-.152v.225h.141zm-.004.738c-.398 0-.682-.3-.682-.698 0-.42.315-.698.682-.698.364 0 .68.278.68.698 0 .42-.316.698-.68.698zm0-1.275c-.3 0-.534.237-.534.577 0 .317.205.577.534.577.297 0 .53-.235.53-.577 0-.34-.233-.577-.53-.577z" id="Fill-8"/></g><path d="M4 30.197h43a4 4 0 0 0 4-4v-2.43H0v2.43a4 4 0 0 0 4 4z" id="Fill-9" fill="#EEA339"/><path d="M0 6.43h51V4a4 4 0 0 0-4-4H4a4 4 0 0 0-4 4v2.43z" id="Fill-10" fill="#005186"/></g></g></g></g></g></g></svg>