<svg xmlns="http://www.w3.org/2000/svg" width="36" height="24" fill="none"><path fill="#DE2910" d="M0 0h35.2v24H0V0z"/><path fill="#FFDE02" d="M11.2 3.2h1.6v1.6h-1.6V3.2zm1.6 3.2h1.6V8h-1.6V6.4zm0 3.2h1.6v1.6h-1.6V9.6zm-1.6 3.2h1.6v1.6h-1.6v-1.6z"/><path d="M33.6 1.6v20.8h-32V1.6h32zM35.2 0H0v24h35.2V0z" opacity=".1"/><path fill="#FFDE02" d="M2.24 7.84L4.8 9.76l-.96 3.04 2.56-1.92 2.72 1.92-.96-3.04 2.56-1.92h-3.2L6.56 4.8 5.44 7.84h-3.2z"/><path fill="url(#a)" d="M0 0h35.2v24H0V0z"/><defs><linearGradient id="a" x1="17.6" x2="17.6" y1="24" gradientUnits="userSpaceOnUse"><stop stop-opacity=".15"/><stop offset="1" stop-color="#f00" stop-opacity="0"/></linearGradient></defs></svg>