<svg xmlns="http://www.w3.org/2000/svg" width="36" height="24" fill="none"><g clip-path="url(#clip0)"><path fill="#F0F0F0" d="M.2 0h35.2v24H.2V0z"/><path fill="#D80027" d="M19.4 0h-3.2v10.4H.2v3.2h16V24h3.2V13.6h16v-3.2h-16V0zm3.2 8l11.2-8 1.6 1.6-11.2 8L22.6 8z"/><path fill="#0052B4" d="M32.2 8l3.2-3.2v4.8L32.2 8zM21 4.8V0h6.4L21 4.8z"/><path fill="#001E8C" d="M33.8 1.6v20.8h-32V1.6h32zM35.4 0H.2v24h35.2V0z" opacity=".3"/><path fill="#fff" d="M19.4 8h16v1.92h-16V8zm0-8H21v9.6h-1.6V0z"/><path fill="#D80027" d="M13 8L1.8 0 .2 1.6l11.2 8L13 8z"/><path fill="#0052B4" d="M3.4 8L.2 4.8v4.8L3.4 8zm11.2-3.2V0H8.2l6.4 4.8z"/><path fill="#fff" d="M.2 8h16v1.92H.2V8zm14.4-8h1.6v9.6h-1.6V0z"/><path fill="#D80027" d="M22.6 16l11.2 8 1.6-1.6-11.2-8-1.6 1.6z"/><path fill="#0052B4" d="M32.2 16l3.2 3.2V16h-3.2zM21 19.2V24h6.4L21 19.2z"/><path fill="#fff" d="M19.4 13.92h16V16h-16v-2.08zm0 .48H21V24h-1.6v-9.6z"/><path fill="#D80027" d="M13 16L1.8 24 .2 22.4l11.2-8L13 16z"/><path fill="#0052B4" d="M3.4 16L.2 19.2v-4.8L3.4 16zm11.2 3.2V24H8.2l6.4-4.8z"/><path fill="#fff" d="M.2 13.92h16V16H.2v-2.08zm14.4.48h1.6V24h-1.6v-9.6z"/><path fill="url(#paint0_linear)" d="M.2 0h35.2v24H.2V0z"/></g><defs><linearGradient id="paint0_linear" x1="17.79" x2="17.79" y1="24" y2="0" gradientUnits="userSpaceOnUse"><stop stop-opacity=".15"/><stop offset="1" stop-color="red" stop-opacity="0"/></linearGradient><clipPath id="clip0"><path fill="#fff" d="M0 0h35.2v24H0z" transform="translate(.2)"/></clipPath></defs></svg>