<?xml version="1.0" encoding="UTF-8"?>
<svg width="172px" height="45px" viewBox="0 0 172 45" version="1.1" xmlns="http://www.w3.org/2000/svg" xmlns:xlink="http://www.w3.org/1999/xlink">
    <!-- Generator: Sketch 55.2 (78181) - https://sketchapp.com -->
    <title>Group 13</title>
    <desc>Created with Sketch.</desc>
    <defs>
        <linearGradient x1="53.3731618%" y1="100%" x2="53.3731618%" y2="0%" id="linearGradient-1">
            <stop stop-color="#EEEEEE" offset="0%"></stop>
            <stop stop-color="#FFFFFF" offset="100%"></stop>
        </linearGradient>
    </defs>
    <g id="Page-1" stroke="none" stroke-width="1" fill="none" fill-rule="evenodd">
        <g id="Main-7-Time" transform="translate(-1089.000000, -547.000000)">
            <g id="Group-13" transform="translate(1090.000000, 548.000000)">
                <g id="Rectangle-Copy-15" fill="url(#linearGradient-1)" stroke="#C7CDDB">
                    <rect id="Rectangle-Copy-5" x="-0.5" y="-0.5" width="171" height="44" rx="2"></rect>
                </g>
                <g id="Group-32" opacity="0.8" transform="translate(32.000000, 5.000000)">
                    <path d="M56.9516908,9.39534884 L54.6328502,8.09302326 L54.4879227,8.3255814 C53.9565217,9.11627907 53.2318841,9.53488372 52.3623188,9.53488372 C50.8647343,9.53488372 49.705314,8.41860465 49.705314,6.97674419 C49.705314,5.53488372 50.8647343,4.41860465 52.3623188,4.41860465 C53.2801932,4.41860465 53.9565217,4.79069767 54.4879227,5.62790698 L54.6811594,5.86046512 L57,4.55813953 L56.8067633,4.27906977 C55.6956522,2.74418605 54.2463768,2 52.410628,2 C48.884058,2 47,4.55813953 47,6.97674419 C47,9.39534884 48.884058,12 52.410628,12 C54.1980676,12 55.8888889,11.1162791 56.8067633,9.72093023 L56.9516908,9.39534884 Z" id="Path" fill="#C01818" fill-rule="nonzero"></path>
                    <path d="M56,12 L59.1660517,12 L60.1254613,9.93684211 L64.8745387,9.93684211 L65.8339483,12 L69,12 L63.2435424,0 L60.4132841,0 L61.1808118,1.6 L56,12 L56,12 Z M62.4760148,4.71578947 L63.7712177,7.53684211 L61.1808118,7.53684211 L62.4760148,4.71578947 Z" id="Shape" fill="#C01818" fill-rule="nonzero"></path>
                    <path d="M70.0331126,12 L72.3377483,12 L72.3377483,6.5915493 L73.8476821,6.5915493 L73.8476821,4.30985915 L72.3377483,4.30985915 L72.3377483,3.25352113 C72.3377483,2.78873239 72.615894,2.32394366 73.1721854,2.32394366 C73.4503311,2.32394366 73.6490066,2.36619718 73.807947,2.45070423 L74.0463576,2.57746479 L75,0.38028169 L74.7218543,0.253521127 C74.2847682,0.0845070423 73.6887417,0 73.2913907,0 C72.2582781,0 71.384106,0.38028169 70.8278146,1.05633803 C70.3112583,1.64788732 70.0331126,2.49295775 70.0331126,3.38028169 L70.0331126,4.35211268 L69,4.35211268 L69,6.63380282 L69.9933775,6.63380282 L70.0331126,12 Z" id="Path" fill="#C01818" fill-rule="nonzero"></path>
                    <polygon id="Path" fill="#C01818" fill-rule="nonzero" points="35 0 35 12 37.7943548 12 37.7943548 5.14285714 40.5 7.02439024 43.2056452 5.14285714 43.2056452 12 46 12 46 0 40.5 3.93031359"></polygon>
                    <path d="M80.1376147,2 C76.7889908,2 75,4.57009346 75,7 C75,9.42990654 76.7889908,12 80.1376147,12 L80.1376147,12 L80.1376147,12 C81.6513761,12 83.1192661,11.2523364 84.2201835,9.99065421 L82.0642202,8.77570093 C81.5137615,9.3364486 80.8256881,9.6635514 80.0917431,9.6635514 C78.9908257,9.6635514 78.0275229,8.91588785 77.7981651,7.98130841 L85,7.98130841 L85,7.3271028 C85,3.63551402 82.1559633,2 80.1376147,2 Z M77.8440367,5.73831776 C78.2110092,4.80373832 78.9449541,4.28971963 79.9082569,4.28971963 C80.8715596,4.28971963 81.6513761,4.80373832 82.0642202,5.73831776 L77.8440367,5.73831776 Z" id="Shape" fill="#C01818" fill-rule="nonzero"></path>
                    <path d="M91.1376147,2 C87.7889908,2 86,4.57009346 86,7 C86,9.42990654 87.7889908,12 91.1376147,12 L91.1376147,12 L91.1376147,12 C92.6513761,12 94.1192661,11.2523364 95.2201835,9.99065421 L93.0642202,8.77570093 C92.5137615,9.3364486 91.8256881,9.6635514 91.0917431,9.6635514 C89.9908257,9.6635514 89.0275229,8.91588785 88.7981651,7.98130841 L96,7.98130841 L96,7.3271028 C96,3.63551402 93.1559633,2 91.1376147,2 Z M88.8440367,5.78504673 C89.2110092,4.85046729 89.9449541,4.3364486 90.9082569,4.3364486 C91.8715596,4.3364486 92.6513761,4.85046729 93.0642202,5.78504673 L88.8440367,5.78504673 Z" id="Shape" fill="#C01818" fill-rule="nonzero"></path>
                    <text id="TM" font-family="Roboto-Regular, Roboto" font-size="4" font-weight="normal" fill="#515256">
                        <tspan x="97" y="20">TM</tspan>
                    </text>
                    <polygon id="Path" fill="#C01818" fill-rule="nonzero" points="6.19354839 23.2380952 6.19354839 9.42857143 15 13.5238095 15 6.85714286 0 0 0 27.1428571 15 34 15 27.3333333"></polygon>
                    <polygon id="Path" fill="#75160D" fill-rule="nonzero" points="23.9032258 23.2380952 23.9032258 9.42857143 15 13.5238095 15 6.85714286 30 0 30 27.1428571 15 34 15 27.3333333"></polygon>
                    <g id="Group-31" transform="translate(33.000000, 17.000000)" fill="#515256">
                        <path d="M6.34268725,2.00247685 C5.44166625,1.6604808 4.94710584,1.50598259 4.02806442,1.50598259 C3.03844303,1.50598259 1.87262197,1.84847863 1.87262197,3.09746419 C1.87262197,5.39093767 7.17312826,4.8604438 7.17312826,8.7958983 C7.17312826,11.3463688 5.14082535,12.3553571 2.66802328,12.3553571 C1.80154142,12.3553571 0.953580554,12.1168599 0.141159956,11.8598629 L0.317359618,10.2683813 C0.919541983,10.5073785 1.97824165,10.8503745 2.87976322,10.8503745 C3.8864039,10.8503745 5.30000573,10.3018809 5.30000573,8.8993971 C5.30000573,6.22892798 0,6.96541946 0,3.25146241 C0,1.12898695 1.73146201,4.54747351e-13 3.95698387,4.54747351e-13 C4.77090617,4.54747351e-13 5.74200658,0.136998416 6.59046802,0.427995051 L6.34268725,2.00247685 Z M10.3113719,4.54747351e-13 L17.4845001,4.54747351e-13 L17.4845001,1.55721977 L12.1459714,1.55721977 L12.1459714,5.16866636 L17.0074003,5.16866636 L17.0074003,6.72640331 L12.1459714,6.72640331 L12.1459714,10.7976202 L17.4845001,10.7976202 L17.4845001,12.3553571 L10.3113719,12.3553571 L10.3113719,4.54747351e-13 Z M28.5228535,2.17397486 C27.6994746,1.72848001 26.7838432,1.50598259 25.8284479,1.50598259 C22.8154005,1.50598259 20.8123576,3.49145963 20.8123576,6.17792857 C20.8123576,8.98389612 23.0211127,10.8503745 25.7356654,10.8503745 C26.6709136,10.8503745 27.9242734,10.6268771 28.5801136,10.2683813 L28.6925131,11.9278621 C27.6994746,12.3053577 26.4842881,12.3553571 25.7155183,12.3553571 C21.580067,12.3553571 18.8294617,9.92588523 18.8294617,6.12692916 C18.8294617,2.44697171 21.7497265,4.54747351e-13 25.7356654,4.54747351e-13 C26.7456698,4.54747351e-13 27.737648,0.136998416 28.6728962,0.513494063 L28.5228535,2.17397486 Z M40.3488465,7.11780431 C40.3488465,10.528493 38.4650848,12.3553571 35.192891,12.3553571 C31.9206973,12.3553571 30.0374746,10.528493 30.0374746,7.11780431 L30.0374746,4.54747351e-13 L31.9395619,4.54747351e-13 L31.9395619,6.8910352 C31.9395619,9.22380798 32.7388805,10.8249199 35.192891,10.8249199 C37.6474406,10.8249199 38.4462202,9.22380798 38.4462202,6.8910352 L38.4462202,4.54747351e-13 L40.3488465,4.54747351e-13 L40.3488465,7.11780431 Z M44.9217157,5.29515306 L46.4478379,5.29515306 C48.1534738,5.29515306 49.1583446,4.50919939 49.1583446,3.25419119 C49.1583446,2.0730714 48.2968815,1.32378827 46.6451505,1.32378827 L44.9217157,1.32378827 L44.9217157,5.29515306 Z M43.0387696,9.09494702e-13 L46.2712837,9.09494702e-13 C48.880327,9.09494702e-13 51.3945642,0.38891706 51.3945642,3.34613481 C51.3945642,4.85008536 50.2043991,5.91184962 48.6719678,6.15957738 L48.6719678,6.19577976 C49.2584803,6.40782231 49.5418274,6.67313408 49.9580102,7.43545289 L52.4535004,12.3553571 L50.2986696,12.3553571 L48.2750675,8.07209771 C47.6896263,6.86810979 47.0650842,6.86810979 46.0634601,6.86810979 L44.9284647,6.86810979 L44.9284647,12.3553571 L43.0387696,12.3553571 L43.0387696,9.09494702e-13 Z M54.695103,4.54747351e-13 L61.4199108,4.54747351e-13 L61.4199108,1.55721977 L56.4151647,1.55721977 L56.4151647,5.16866636 L60.9725973,5.16866636 L60.9725973,6.72640331 L56.4151647,6.72640331 L56.4151647,10.7976202 L61.4199108,10.7976202 L61.4199108,12.3553571 L54.695103,12.3553571 L54.695103,4.54747351e-13 Z" id="Combined-Shape"></path>
                    </g>
                </g>
            </g>
        </g>
    </g>
</svg>