<?xml version="1.0" encoding="UTF-8"?>
<svg width="172px" height="45px" viewBox="0 0 172 45" version="1.1" xmlns="http://www.w3.org/2000/svg" xmlns:xlink="http://www.w3.org/1999/xlink">
    <!-- Generator: Sketch 55.2 (78181) - https://sketchapp.com -->
    <title>Group 8</title>
    <desc>Created with Sketch.</desc>
    <defs>
        <linearGradient x1="50%" y1="47.172442%" x2="66.3359851%" y2="53.5723975%" id="linearGradient-1">
            <stop stop-color="#575757" offset="0%"></stop>
            <stop stop-color="#3A3E44" offset="100%"></stop>
        </linearGradient>
        <linearGradient x1="81.4036885%" y1="66.0102186%" x2="9.59592725%" y2="35.322431%" id="linearGradient-2">
            <stop stop-color="#F2DEB2" offset="0%"></stop>
            <stop stop-color="#F4D8A6" offset="59.7651566%"></stop>
            <stop stop-color="#D9BD8D" offset="100%"></stop>
        </linearGradient>
    </defs>
    <g id="Page-1" stroke="none" stroke-width="1" fill="none" fill-rule="evenodd">
        <g id="Main-7-Time" transform="translate(-909.000000, -547.000000)">
            <g id="Group-8" transform="translate(910.000000, 548.000000)">
                <g id="Rectangle-Copy-16" stroke="#D9BD8E">
                    <rect id="Rectangle-Copy-5" x="-0.5" y="-0.5" width="171" height="44" rx="2"></rect>
                </g>
                <rect id="Rectangle" stroke="#D8BA87" stroke-width="0.7" fill="url(#linearGradient-1)" x="4.35" y="2.35" width="163.3" height="38.3" rx="2"></rect>
                <path d="M62.65,40.65 L62.65,2.35 L4,2.35 C3.08873016,2.35 2.35,3.08873016 2.35,4 L2.35,39 C2.35,39.9112698 3.08873016,40.65 4,40.65 L62.65,40.65 Z" id="Rectangle" stroke="#D8BA87" stroke-width="0.7" fill="url(#linearGradient-2)"></path>
                <path d="M74.1,30.2 L74.1,28.2 L77.18,28.2 L77.18,32.64 C77.18,34.88 76.06,36.16 73.9,36.16 C71.74,36.16 70.62,34.88 70.62,32.64 L70.62,25.36 C70.62,23.12 71.74,21.84 73.9,21.84 C76.06,21.84 77.18,23.12 77.18,25.36 L77.18,26.72 L75.1,26.72 L75.1,25.22 C75.1,24.22 74.66,23.84 73.96,23.84 C73.26,23.84 72.82,24.22 72.82,25.22 L72.82,32.78 C72.82,33.78 73.26,34.14 73.96,34.14 C74.66,34.14 75.1,33.78 75.1,32.78 L75.1,30.2 L74.1,30.2 Z M79.9526316,22 L82.1526316,22 L82.1526316,32.8 C82.1526316,33.8 82.5926316,34.16 83.2926316,34.16 C83.9926316,34.16 84.4326316,33.8 84.4326316,32.8 L84.4326316,22 L86.5126316,22 L86.5126316,32.66 C86.5126316,34.9 85.3926316,36.18 83.2326316,36.18 C81.0726316,36.18 79.9526316,34.9 79.9526316,32.66 L79.9526316,22 Z M94.3452632,22 L96.5852632,36 L94.3652632,36 L93.9852632,33.46 L91.2852632,33.46 L90.9052632,36 L88.8852632,36 L91.1252632,22 L94.3452632,22 Z M92.6252632,24.48 L91.5652632,31.56 L93.6852632,31.56 L92.6252632,24.48 Z M105.897895,36 L103.657895,36 C103.537895,35.64 103.457895,35.42 103.457895,34.28 L103.457895,32.08 C103.457895,30.78 103.017895,30.3 102.017895,30.3 L101.257895,30.3 L101.257895,36 L99.0578947,36 L99.0578947,22 L102.377895,22 C104.657895,22 105.637895,23.06 105.637895,25.22 L105.637895,26.32 C105.637895,27.76 105.177895,28.7 104.197895,29.16 C105.297895,29.62 105.657895,30.68 105.657895,32.14 L105.657895,34.3 C105.657895,34.98 105.677895,35.48 105.897895,36 Z M102.317895,24 L101.257895,24 L101.257895,28.3 L102.117895,28.3 C102.937895,28.3 103.437895,27.94 103.437895,26.82 L103.437895,25.44 C103.437895,24.44 103.097895,24 102.317895,24 Z M113.430526,22 L115.670526,36 L113.450526,36 L113.070526,33.46 L110.370526,33.46 L109.990526,36 L107.970526,36 L110.210526,22 L113.430526,22 Z M111.710526,24.48 L110.650526,31.56 L112.770526,31.56 L111.710526,24.48 Z M122.843158,36 L120.103158,25.86 L120.103158,36 L118.123158,36 L118.123158,22 L120.883158,22 L123.143158,30.38 L123.143158,22 L125.103158,22 L125.103158,36 L122.843158,36 Z M127.495789,24 L127.495789,22 L134.295789,22 L134.295789,24 L131.995789,24 L131.995789,36 L129.795789,36 L129.795789,24 L127.495789,24 Z M138.908421,24 L138.908421,27.9 L141.928421,27.9 L141.928421,29.9 L138.908421,29.9 L138.908421,34 L142.708421,34 L142.708421,36 L136.708421,36 L136.708421,22 L142.708421,22 L142.708421,24 L138.908421,24 Z M147.721053,24 L147.721053,27.9 L150.741053,27.9 L150.741053,29.9 L147.721053,29.9 L147.721053,34 L151.521053,34 L151.521053,36 L145.521053,36 L145.521053,22 L151.521053,22 L151.521053,24 L147.721053,24 Z" id="GUARANTEE" fill="#F5EFE2" fill-rule="nonzero"></path>
                <path d="M73.072,6.8 L74.368,14.752 L75.568,6.8 L78.016,6.8 L78.016,18 L76.352,18 L76.352,9.968 L75.136,18 L73.472,18 L72.16,10.08 L72.16,18 L70.624,18 L70.624,6.8 L73.072,6.8 Z M81.565333,9.376 L81.565333,15.424 C81.565333,16.224 81.917333,16.528 82.477333,16.528 C83.037333,16.528 83.389333,16.224 83.389333,15.424 L83.389333,9.376 C83.389333,8.576 83.037333,8.272 82.477333,8.272 C81.917333,8.272 81.565333,8.576 81.565333,9.376 Z M79.805333,15.312 L79.805333,9.488 C79.805333,7.696 80.749333,6.672 82.477333,6.672 C84.205333,6.672 85.149333,7.696 85.149333,9.488 L85.149333,15.312 C85.149333,17.104 84.205333,18.128 82.477333,18.128 C80.749333,18.128 79.805333,17.104 79.805333,15.312 Z M90.698666,18 L88.506666,9.888 L88.506666,18 L86.922666,18 L86.922666,6.8 L89.130666,6.8 L90.938666,13.504 L90.938666,6.8 L92.506666,6.8 L92.506666,18 L90.698666,18 Z M96.183999,8.4 L96.183999,11.52 L98.599999,11.52 L98.599999,13.12 L96.183999,13.12 L96.183999,16.4 L99.223999,16.4 L99.223999,18 L94.423999,18 L94.423999,6.8 L99.223999,6.8 L99.223999,8.4 L96.183999,8.4 Z M102.613332,18 L102.613332,14.288 L100.389332,6.8 L102.229332,6.8 L103.573332,11.904 L104.917332,6.8 L106.597332,6.8 L104.373332,14.288 L104.373332,18 L102.613332,18 Z M113.743998,6.8 C115.567998,6.8 116.351998,7.648 116.351998,9.376 L116.351998,9.776 C116.351998,10.928 115.999998,11.664 115.215998,12.032 C116.159998,12.4 116.527998,13.248 116.527998,14.432 L116.527998,15.344 C116.527998,17.072 115.615998,18 113.855998,18 L111.087998,18 L111.087998,6.8 L113.743998,6.8 Z M113.631998,12.96 L112.847998,12.96 L112.847998,16.4 L113.855998,16.4 C114.447998,16.4 114.767998,16.128 114.767998,15.296 L114.767998,14.32 C114.767998,13.28 114.431998,12.96 113.631998,12.96 Z M113.695998,8.4 L112.847998,8.4 L112.847998,11.36 L113.535998,11.36 C114.191998,11.36 114.591998,11.072 114.591998,10.176 L114.591998,9.552 C114.591998,8.752 114.319998,8.4 113.695998,8.4 Z M122.141331,6.8 L123.933331,18 L122.157331,18 L121.853331,15.968 L119.693331,15.968 L119.389331,18 L117.773331,18 L119.565331,6.8 L122.141331,6.8 Z M120.765331,8.784 L119.917331,14.448 L121.613331,14.448 L120.765331,8.784 Z M128.842664,13.824 L130.506664,13.824 L130.506664,15.312 C130.506664,17.104 129.610664,18.128 127.882664,18.128 C126.154664,18.128 125.258664,17.104 125.258664,15.312 L125.258664,9.488 C125.258664,7.696 126.154664,6.672 127.882664,6.672 C129.610664,6.672 130.506664,7.696 130.506664,9.488 L130.506664,10.576 L128.842664,10.576 L128.842664,9.376 C128.842664,8.576 128.490664,8.272 127.930664,8.272 C127.370664,8.272 127.018664,8.576 127.018664,9.376 L127.018664,15.424 C127.018664,16.224 127.370664,16.512 127.930664,16.512 C128.490664,16.512 128.842664,16.224 128.842664,15.424 L128.842664,13.824 Z M136.247997,18 L134.535997,13.536 L133.991997,14.56 L133.991997,18 L132.231997,18 L132.231997,6.8 L133.991997,6.8 L133.991997,11.68 L136.295997,6.8 L138.055997,6.8 L135.607997,11.792 L138.055997,18 L136.247997,18 Z" id="MONEYBACK" fill="#F5EFE2" fill-rule="nonzero"></path>
                <path d="M8.772,15.514 L8.772,13.252 C11.237,13.252 11.788,12.063 12.281,10.7 L14.427,10.7 L14.427,31 L11.237,31 L11.237,15.514 L8.772,15.514 Z M21.793,15.369 L21.793,26.331 C21.793,27.781 22.431,28.332 23.446,28.332 C24.461,28.332 25.099,27.781 25.099,26.331 L25.099,15.369 C25.099,13.919 24.461,13.368 23.446,13.368 C22.431,13.368 21.793,13.919 21.793,15.369 Z M18.603,26.128 L18.603,15.572 C18.603,12.324 20.314,10.468 23.446,10.468 C26.578,10.468 28.289,12.324 28.289,15.572 L28.289,26.128 C28.289,29.376 26.578,31.232 23.446,31.232 C20.314,31.232 18.603,29.376 18.603,26.128 Z M33.857,15.369 L33.857,26.331 C33.857,27.781 34.495,28.332 35.51,28.332 C36.525,28.332 37.163,27.781 37.163,26.331 L37.163,15.369 C37.163,13.919 36.525,13.368 35.51,13.368 C34.495,13.368 33.857,13.919 33.857,15.369 Z M30.667,26.128 L30.667,15.572 C30.667,12.324 32.378,10.468 35.51,10.468 C38.642,10.468 40.353,12.324 40.353,15.572 L40.353,26.128 C40.353,29.376 38.642,31.232 35.51,31.232 C32.378,31.232 30.667,29.376 30.667,26.128 Z M44.328,16.648 L44.328,22.408 C44.328,23.152 44.64,23.464 45.192,23.464 C45.72,23.464 46.056,23.152 46.056,22.408 L46.056,16.648 C46.056,15.904 45.72,15.592 45.192,15.592 C44.64,15.592 44.328,15.904 44.328,16.648 Z M42.648,22.288 L42.648,16.768 C42.648,15.04 43.536,14.08 45.192,14.08 C46.848,14.08 47.736,15.04 47.736,16.768 L47.736,22.288 C47.736,24.016 46.848,24.976 45.192,24.976 C43.536,24.976 42.648,24.016 42.648,22.288 Z M45.192,31 L51.816,14.2 L53.376,14.2 L46.752,31 L45.192,31 Z M52.656,22.792 L52.656,28.552 C52.656,29.296 52.968,29.608 53.52,29.608 C54.048,29.608 54.384,29.296 54.384,28.552 L54.384,22.792 C54.384,22.048 54.048,21.736 53.52,21.736 C52.968,21.736 52.656,22.048 52.656,22.792 Z M50.976,28.432 L50.976,22.912 C50.976,21.184 51.864,20.224 53.52,20.224 C55.176,20.224 56.064,21.184 56.064,22.912 L56.064,28.432 C56.064,30.16 55.176,31.12 53.52,31.12 C51.864,31.12 50.976,30.16 50.976,28.432 Z" id="100%" fill="#3E4247" fill-rule="nonzero"></path>
            </g>
        </g>
    </g>
</svg>